# xmcd
#
# Track frame offsets: 
#        150
#        7052
#        12575
#        24045
#        38800
#        50938
#        66000
#        87713
#        104126
#        119025
#        133313
#        147225
#        159077
#        181975
#        196095
#        210264
#        228310
#        240488
#
# Disc length: 3420 seconds
#
# Revision: 12
# Processed by: cddbd v1.5.2PL0 Copyright (c) Steve Scherf et al.
# Submitted via: ExactAudioCopy v0.99pb5
#
DISCID=fc0d5a12
DTITLE=The English Concert - Trevor Pinnock - Vivaldi, Antonio - Conce
DTITLE=rtos CD2
DYEAR=1987
DGENRE=Classical
TTITLE0=Concerto for Strings in A major, RV 159 - I.Allegro
TTITLE1=II.Adagio
TTITLE2=III.Allegro
TTITLE3=Concerto for Violin in E major " L'Amoroso", RV 271 - I.Allegr
TTITLE3=o
TTITLE4=II.Cantabile
TTITLE5=III.Allegro
TTITLE6=Concerto for Bassoon in E major, RV 484 - I.Allegro poco
TTITLE7=II.Andante
TTITLE8=III.Allegro
TTITLE9=Concerto for Flute in G major, RV 436 - I.Allegro
TTITLE10=II.Largo
TTITLE11=III.Allegro
TTITLE12=Concerto for Viola d'amore and Lute in D major, RV 540 - I.Alle
TTITLE12=gro
TTITLE13=II.Largo
TTITLE14=III.Allegro
TTITLE15=Concerto for Oboe and Bassoon in G major, RV 545 - I.Andante mo
TTITLE15=lto
TTITLE16=II.Largo
TTITLE17=III.Allegro molto
EXTD=Vivaldi Concertos\nThe English Concert\nTrevor Pinnock\nCD 2/4 
EXTT0=
EXTT1=
EXTT2=
EXTT3=
EXTT4=
EXTT5=
EXTT6=
EXTT7=
EXTT8=
EXTT9=
EXTT10=
EXTT11=
EXTT12=
EXTT13=
EXTT14=
EXTT15=
EXTT16=
EXTT17=
PLAYORDER=
